# xmcd
#
# Track frame offsets: 
#        150
#        9937
#        23580
#        34533
#        47588
#        58204
#        71912
#        85907
#        98099
#        112423
#
# Disc length: 1641 seconds
#
# Revision: 0
# Processed by: cddbd v1.5.2PL0 Copyright (c) Steve Scherf et al.
# Submitted via: ExactAudioCopy v1.0b3
#
DISCID=7d06670a
DTITLE=Charlie Louvin - Charlie Louvin At His Best
DYEAR=1900
DGENRE=Country
TTITLE0=See The Big Man Cry
TTITLE1=North Wind
TTITLE2=Sweeter Than The Flowers
TTITLE3=Don't Let Me Crossover
TTITLE4=Tonight I'm Going To The Gallows
TTITLE5=The Kind Of Man I Am
TTITLE6=I Should Be Doin' This At Home
TTITLE7=High Cost Of Living
TTITLE8=The Best Mistake I Ever Made
TTITLE9=Hoping That Your Hoping
EXTD=
EXTT0=
EXTT1=
EXTT2=
EXTT3=
EXTT4=
EXTT5=
EXTT6=
EXTT7=
EXTT8=
EXTT9=
PLAYORDER=
